<?xml version="1.0" encoding="UTF-8"?>
<!-- Generator: Adobe Illustrator 19.0.0, SVG Export Plug-In . SVG Version: 6.00 Build 0)  -->
<svg version="1.1" id="Camada_1" xmlns="http://www.w3.org/2000/svg" xmlns:xlink="http://www.w3.org/1999/xlink" x="0px" y="0px" viewBox="0 0 60 60" style="enable-background:new 0 0 60 60;" xml:space="preserve">
<style type="text/css">
	.st0{fill:#666666;}
</style>
<g id="XMLID_1107_">
	<path id="XMLID_1111_" class="st0" d="M48.4,11.5L48.4,11.5c-1.6-1.6-1.6-4.2,0-5.7l3.7-3.7c0.4-0.4,0.2-1.1-0.4-1.2   c-3.6-1-7.6-0.1-10.5,2.7c-3.1,3.1-3.8,7.5-2.5,11.2c0.1,0.2,0.1,0.6-0.2,0.8L15.7,38.5c-0.2,0.2-0.5,0.2-0.8,0.2   c-3.8-1.4-8.2-0.6-11.2,2.5c-2.9,2.9-3.7,6.9-2.7,10.6c0.2,0.6,0.9,0.7,1.3,0.3l3.7-3.7c1.6-1.6,4.2-1.6,5.7,0l0,0   c1.6,1.6,1.6,4.2,0,5.7L8,57.8c-0.4,0.4-0.2,1.2,0.3,1.3c3.6,1,7.6,0.2,10.5-2.7c3.1-3.1,3.8-7.5,2.5-11.2   c-0.1-0.2-0.1-0.6,0.2-0.8l22.9-22.9c0.2-0.2,0.5-0.2,0.8-0.2c3.8,1.4,8.2,0.6,11.2-2.5c2.8-2.8,3.7-6.9,2.7-10.5   c-0.2-0.6-0.9-0.7-1.3-0.3l-3.7,3.6C52.5,13.2,50,13.2,48.4,11.5z"/>
	<g id="XMLID_1108_">
		<path id="XMLID_1110_" class="st0" d="M21.3,28.3l7.1-7.1c0.4-0.4,0.4-1.2,0-1.6L11,2.4C8.8,0.1,4.8-0.1,2.4,2.1    c-2.5,2.3-2.6,6.3-0.2,8.7l17.4,17.4C20.1,28.7,20.8,28.7,21.3,28.3z"/>
		<path id="XMLID_1109_" class="st0" d="M56.5,51.5c-0.2-0.2-0.3-0.3-0.5-0.4l-3.1-1.6c-0.1-0.1-0.2-0.2-0.3-0.2l-15-15    c-0.4-0.4-1.2-0.4-1.6,0l-1.8,1.8c-0.4,0.4-0.4,1.2,0,1.6l15,15c0.1,0.1,0.2,0.2,0.2,0.3L51,56c0.1,0.2,0.2,0.3,0.4,0.5l4.1,2.7    c0.5,0.3,1.2,0.2,1.7-0.2l1.8-1.8c0.4-0.4,0.5-1.2,0.2-1.7L56.5,51.5z"/>
	</g>
</g>
</svg>