<?xml version="1.0" encoding="UTF-8"?>
<!DOCTYPE svg PUBLIC "-//W3C//DTD SVG 1.1//EN" "http://www.w3.org/Graphics/SVG/1.1/DTD/svg11.dtd">
<!-- Creator: CorelDRAW 2018 (64 Bit) -->
<svg xmlns="http://www.w3.org/2000/svg" xml:space="preserve" width="1261px" height="218px" version="1.1" style="shape-rendering:geometricPrecision; text-rendering:geometricPrecision; image-rendering:optimizeQuality; fill-rule:evenodd; clip-rule:evenodd"
viewBox="0 0 1246.13 215.44"
 xmlns:xlink="http://www.w3.org/1999/xlink">
 <defs>
  <style type="text/css">
   <![CDATA[
    .fil1 {fill:#DE070E}
    .fil0 {fill:white;fill-rule:nonzero}
   ]]>
  </style>
 </defs>
 <g id="Camada_x0020_1">
  <metadata id="CorelCorpID_0Corel-Layer"/>
  <polygon class="fil0" points="0,215.24 43.11,215.24 43.11,0 0,0 "/>
  <polygon class="fil0" points="65.81,29.21 65.81,215.44 103.11,215.44 103.11,113.55 214.82,215.44 214.82,29.21 177.52,29.21 177.52,130.98 "/>
  <polygon class="fil0" points="235.17,29.21 235.17,103.73 235.17,140.92 235.17,215.44 272.47,215.44 272.47,178.14 272.47,140.92 328.27,140.92 328.27,103.73 272.47,103.73 272.47,66.43 346.88,66.43 346.88,29.21 "/>
  <path class="fil1" d="M446.15 29.75c-21.13,2.21 -39.53,11.17 -55.18,26.86 -18.22,18.26 -27.33,40.14 -27.33,65.73l0 0c0,25.63 9.11,47.56 27.33,65.78 15.65,15.65 34.05,24.58 55.18,26.78l0 -11.79 -3.49 -0.76c-12.05,-2.61 -22.12,-8.15 -30.17,-16.72 -6.9,-7.33 -10.82,-15.59 -11.7,-24.93l31.69 0c0.92,4.23 3.28,7.91 6.94,11.01 4.87,4.12 10.76,6.11 17.4,6.11 6.6,0 12.47,-2.03 17.31,-6.11 4.83,-4.06 7.47,-9.14 7.47,-15.15 0,-5.96 -2.68,-11.02 -7.46,-15.07 -4.84,-4.09 -10.7,-6.18 -17.32,-6.18 -15.32,0 -28.61,-4.45 -39.85,-13.97 -10.68,-9.05 -16.38,-19.97 -16.38,-33.3 0,-11 4.02,-20.53 11.89,-28.87 8.08,-8.57 18.17,-14.13 30.21,-16.81l3.46 -0.77 0 -11.84zm21.3 185.14c21.04,-2.23 39.37,-11.15 55.02,-26.77 18.26,-18.22 27.41,-40.15 27.41,-65.78l0 0c0,-25.59 -9.15,-47.47 -27.41,-65.73 -15.65,-15.65 -33.98,-24.61 -55.02,-26.85l0 11.83 3.47 0.77c12.04,2.67 22.09,8.22 30.15,16.8 6.84,7.28 10.77,15.47 11.66,24.75l-31.59 0c-0.95,-4.2 -3.36,-7.85 -6.99,-10.93 -4.84,-4.11 -10.71,-6.15 -17.33,-6.15 -6.66,0 -12.56,2 -17.42,6.16 -4.75,4.06 -7.35,9.1 -7.35,15.05 0,5.99 2.57,11.11 7.35,15.2 4.86,4.16 10.76,6.17 17.42,6.17 15.28,0 28.52,4.49 39.73,13.97 10.65,9.01 16.38,19.9 16.38,33.18 0,11.05 -4,20.67 -11.86,29.08 -8.04,8.59 -18.07,14.1 -30.12,16.71l-3.5 0.76 0 11.78z"/>
  <path class="fil0" d="M590.81 215.24l43.12 0 0 -64.62 32.17 0 0 0c20.74,0 38.51,-7.38 53.28,-22.1 14.81,-14.72 22.19,-32.45 22.19,-53.19l0 0c0,-20.64 -7.38,-38.37 -22.19,-53.13 -14.77,-14.81 -32.54,-22.2 -53.28,-22.2l0 0 -32.17 0 -43.12 0 0 75.33 0 0 0 75.29 0 64.62zm43.12 -107.59l0 -32.32 0 0 0 -32.31 32.17 0 0 0c8.93,0 16.55,3.19 22.83,9.53 6.34,6.38 9.48,13.94 9.48,22.78l0 0c0,8.89 -3.14,16.5 -9.48,22.84 -6.28,6.29 -13.9,9.48 -22.83,9.48l0 0 -32.17 0z"/>
  <path class="fil0" d="M757.84 215.24l37.31 0 0 -68.17 47.59 68.17 45.54 0 -42.07 -60.17 0 0 0 0c12.26,-4.65 22.32,-12.46 30.2,-23.54 7.93,-11.04 11.87,-23.5 11.87,-37.34l0 0c0,-17.86 -6.39,-33.2 -19.2,-45.98 -12.78,-12.81 -28.15,-19.2 -46.1,-19.2l0 0 -27.83 0 -37.31 0 0 65.18 0 0 0 65.14 0 55.91zm37.31 -93.09l0 -27.96 0 0 0 -27.96 27.83 0 0 0c7.73,0 14.32,2.76 19.76,8.25 5.48,5.52 8.2,12.06 8.2,19.71l0 0c0,7.69 -2.72,14.27 -8.2,19.76 -5.44,5.44 -12.03,8.2 -19.76,8.2l0 0 -27.83 0z"/>
  <polygon class="fil0" points="905.24,215.24 942.54,215.24 942.54,29.01 905.24,29.01 "/>
  <path class="fil0" d="M1055.28 29.01c-25.63,0 -47.55,9.15 -65.77,27.41 -18.22,18.25 -27.33,40.14 -27.33,65.73l0 0c0,25.63 9.11,47.55 27.33,65.77 18.22,18.22 40.14,27.32 65.77,27.32l0 0c12.82,0 24.84,-2.44 36.12,-7.33 11.28,-4.89 21.17,-11.55 29.73,-20.03l-26.34 -26.34c-10.92,10.92 -24.09,16.4 -39.51,16.4l0 0c-15.38,0 -28.55,-5.44 -39.43,-16.36 -10.92,-10.88 -16.36,-24.05 -16.36,-39.43l0 0c0,-15.34 5.44,-28.47 16.36,-39.47 10.88,-10.97 24.05,-16.45 39.43,-16.45l0 0c15.26,0 28.43,5.44 39.51,16.41l26.34 -26.34c-8.56,-8.4 -18.45,-15.07 -29.73,-19.95 -11.28,-4.89 -23.3,-7.34 -36.12,-7.34z"/>
  <polygon class="fil0" points="1134.42,29.01 1134.42,103.54 1134.42,140.72 1134.42,215.24 1171.73,215.24 1246.13,215.24 1246.13,177.94 1171.73,177.94 1171.73,140.72 1227.52,140.72 1227.52,103.54 1171.73,103.54 1171.73,66.23 1246.13,66.23 1246.13,29.01 "/>
 </g>
</svg>
